# xmcd
#
# Track frame offsets:
# 150
# 16816
# 29269
# 45864
# 57262
# 74957
# 97300
# 110999
# 130086
# 145982
# 159624
# 176585
# 192164
#
# Disc length: 2784 seconds
#
#
# Revision: 0
# Processed by: cddbd v1.5.2PL0 Copyright (c) Steve Scherf et al.
# Submitted via: CDex 1.50 
#
DISCID=be0ade0d
DTITLE=Mark Newton - Follow Me Back to the Fold
DYEAR=2000
DGENRE=Bluegrass
TTITLE0=We Can't Go Wrong
TTITLE1=Used to Be
TTITLE2=A Child Again
TTITLE3=Cradle of Love
TTITLE4=If it Aint Love (Leave it Alone)
TTITLE5=High Lonesome
TTITLE6=Pain of Loving You
TTITLE7=Voice of My Savior
TTITLE8=My Darling
TTITLE9=Never Looking Back
TTITLE10=The Day That Lester Died
TTITLE11=On The Lonesome Wind
TTITLE12=Follow Me Back to the Fold
EXTD=YEAR: 2000
EXTT0=
EXTT1=
EXTT2=
EXTT3=
EXTT4=
EXTT5=
EXTT6=
EXTT7=
EXTT8=
EXTT9=
EXTT10=
EXTT11=
EXTT12=
PLAYORDER=
